<?xml version="1.0" encoding="UTF-8"?>
<svg id="Calque_2" data-name="Calque 2" xmlns="http://www.w3.org/2000/svg" xmlns:xlink="http://www.w3.org/1999/xlink" viewBox="0 0 1584 396">
  <defs>
    <style>
      .cls-1 {
        fill: #fff;
      }

      .cls-2 {
        fill: #151515;
        opacity: .51;
      }

      .cls-3 {
        fill: url(#Dégradé_sans_nom_12);
      }

      .cls-4, .cls-5 {
        stroke: #b3b3b3;
      }

      .cls-4, .cls-5, .cls-6, .cls-7 {
        fill: none;
      }

      .cls-4, .cls-5, .cls-7 {
        stroke-miterlimit: 10;
      }

      .cls-8 {
        fill: #e6e6e6;
      }

      .cls-9 {
        clip-path: url(#clippath);
      }

      .cls-5, .cls-7 {
        opacity: .3;
      }

      .cls-7 {
        stroke: #ccc;
      }
    </style>
    <clipPath id="clippath">
      <rect class="cls-6" width="1584" height="396"/>
    </clipPath>
    <linearGradient id="Dégradé_sans_nom_12" data-name="Dégradé sans nom 12" x1="790.86" y1="10.03" x2="793.14" y2="385.48" gradientUnits="userSpaceOnUse">
      <stop offset="0" stop-color="#c31432"/>
      <stop offset="1" stop-color="#240b36"/>
    </linearGradient>
  </defs>
  <g id="Calque_1-2" data-name="Calque 1">
    <g class="cls-9">
      <rect class="cls-3" width="1584" height="396"/>
      <path class="cls-2" d="m1545.6,11.91l-40.86,40.59-70.28-40.59c-8.7-3.97-17.4-7.94-26.11-11.91-8.68,3.97-17.37,7.94-26.05,11.91-23.43,13.53-46.85,27.06-70.28,40.59l-40.86-40.59c-4.04-3.97-8.08-7.94-12.12-11.91h-26.31v273.4c3.97,2.33,7.94,4.66,11.91,6.99,37.69,21.76,75.38,43.51,113.06,65.27l50.67,50.34,50.67-50.34,113.06-65.27c3.97-2.14,7.94-4.28,11.91-6.42V0h-26.19c-4.08,3.97-8.16,7.94-12.24,11.91Zm-137.21,6.29l82.75,47.79-82.75,82.2-82.75-82.2,82.75-47.79Zm-145.48,11.39l32.68,32.46-32.68,18.88V29.59Zm.22,240.18v-18.03l43.26,43.03-43.26-25Zm185.08,60.74l-39.94,23.06-39.94-23.06-105.21-104.43v-123.91l46.02-26.55,99.12,98.46,99.12-98.46,46.02,26.55v123.91l-105.21,104.43Zm105.43-60.74l-43.26,25,43.26-43.03v18.03Zm.22-240.29v51.33l-32.75-18.92,32.75-32.53v.11Z"/>
      <path class="cls-2" d="m312.6,11.91l-40.86,40.59L201.46,11.91c-8.7-3.97-17.4-7.94-26.11-11.91-8.68,3.97-17.37,7.94-26.05,11.91-23.43,13.53-46.85,27.06-70.28,40.59L38.17,11.91c-4.04-3.97-8.08-7.94-12.12-11.91H-.26v273.4c3.97,2.33,7.94,4.66,11.91,6.99,37.69,21.76,75.38,43.51,113.06,65.27l50.67,50.34,50.67-50.34,113.06-65.27c3.97-2.14,7.94-4.28,11.91-6.42V0h-26.19c-4.08,3.97-8.16,7.94-12.24,11.91Zm-137.21,6.29l82.75,47.79-82.75,82.2-82.75-82.2,82.75-47.79ZM29.9,29.59l32.68,32.46-32.68,18.88V29.59Zm.22,240.18v-18.03l43.26,43.03-43.26-25Zm185.08,60.74l-39.94,23.06-39.94-23.06L30.12,226.07v-123.91l46.02-26.55,99.12,98.46,99.12-98.46,46.02,26.55v123.91l-105.21,104.43Zm105.43-60.74l-43.26,25,43.26-43.03v18.03Zm.22-240.29v51.33l-32.75-18.92,32.75-32.53v.11Z"/>
    </g>
    <g>
      <path class="cls-8" d="m619.13,178.04c-6.85,0-12.78-1.24-17.79-3.73-5.01-2.49-8.89-5.93-11.63-10.32-2.75-4.39-4.12-9.53-4.12-15.41s1.02-11.11,3.05-16.09c2.04-4.98,4.93-9.29,8.68-12.94,3.75-3.65,8.22-6.51,13.42-8.58,5.2-2.07,11.03-3.1,17.5-3.1s12.15,1.02,16.87,3.05c4.72,2.04,8.56,4.96,11.53,8.77l-11.44,9.21c-2.2-2.84-4.75-4.85-7.66-6.01-2.91-1.16-6.24-1.74-9.98-1.74-4.01,0-7.61.68-10.81,2.04-3.2,1.36-5.95,3.23-8.24,5.62-2.29,2.39-4.04,5.19-5.23,8.38-1.2,3.2-1.79,6.67-1.79,10.42,0,3.43.74,6.41,2.23,8.97,1.49,2.55,3.7,4.56,6.64,6.01,2.94,1.45,6.54,2.18,10.81,2.18,3.3,0,6.4-.56,9.31-1.7,2.91-1.13,5.78-2.86,8.63-5.19l6.01,11.92c-3.43,2.65-7.38,4.69-11.87,6.11-4.49,1.42-9.19,2.13-14.1,2.13Zm12.21-10.66l5.04-25.49h14.35l-5.62,27.92-13.76-2.42Z"/>
      <path class="cls-8" d="m649.27,176.88l43.81-67.85h15.51l16.77,67.85h-15.7l-13.28-60.1h6.3l-36.64,60.1h-16.77Zm18.03-14.54l6.49-11.92h34.99l1.84,11.92h-43.33Z"/>
      <path class="cls-8" d="m750.56,164.28h36.93l-2.42,12.6h-52.63l13.57-67.85h51.18l-2.42,12.6h-35.67l-8.53,42.65Zm4.46-28.01h32.67l-2.42,12.31h-32.67l2.42-12.31Zm8.92-33.25c-1.81,0-3.31-.53-4.51-1.6-1.2-1.07-1.79-2.54-1.79-4.41,0-2.2.73-3.97,2.18-5.33,1.45-1.36,3.08-2.04,4.89-2.04s3.41.55,4.6,1.65c1.19,1.1,1.79,2.55,1.79,4.36,0,2.2-.73,3.97-2.18,5.33-1.45,1.36-3.12,2.04-4.99,2.04Zm19.58,0c-1.81,0-3.31-.53-4.51-1.6-1.2-1.07-1.79-2.54-1.79-4.41,0-2.2.73-3.97,2.18-5.33,1.45-1.36,3.12-2.04,4.99-2.04s3.33.55,4.56,1.65c1.23,1.1,1.84,2.55,1.84,4.36,0,2.2-.74,3.97-2.23,5.33-1.49,1.36-3.17,2.04-5.04,2.04Z"/>
      <path class="cls-8" d="m811.53,176.88l10.95-55.06h-21.62l2.52-12.79h59.13l-2.62,12.79h-21.62l-10.95,55.06h-15.8Z"/>
      <path class="cls-8" d="m845.07,176.88l43.81-67.85h15.51l16.77,67.85h-15.7l-13.28-60.1h6.3l-36.64,60.1h-16.77Zm18.03-14.54l6.49-11.92h34.99l1.84,11.92h-43.33Z"/>
      <path class="cls-8" d="m928.23,176.88l13.57-67.85h12.99l29.18,49.14-5.14-.29,9.79-48.85h15.41l-13.57,67.85h-12.89l-29.27-49.14,5.23.29-9.79,48.85h-15.51Z"/>
      <path class="cls-8" d="m557.77,294.36c-3.68,0-7.27-.34-10.76-1.02-3.49-.68-6.64-1.58-9.45-2.71-2.81-1.13-5.15-2.41-7.03-3.83l6.3-12.12c2.07,1.49,4.33,2.76,6.79,3.83,2.46,1.07,4.99,1.88,7.61,2.42,2.62.55,5.28.82,8,.82,2.91,0,5.41-.31,7.51-.92,2.1-.61,3.7-1.52,4.8-2.71,1.1-1.2,1.65-2.6,1.65-4.22s-.6-2.91-1.79-3.88c-1.2-.97-2.78-1.79-4.75-2.47-1.97-.68-4.17-1.34-6.59-1.99-2.42-.65-4.83-1.41-7.22-2.28-2.39-.87-4.59-1.97-6.59-3.29-2-1.32-3.6-3.02-4.8-5.09-1.2-2.07-1.79-4.65-1.79-7.75,0-4.65,1.27-8.71,3.83-12.16,2.55-3.46,6.15-6.12,10.81-8,4.65-1.87,10.11-2.81,16.38-2.81,4.59,0,8.92.48,12.99,1.45,4.07.97,7.59,2.42,10.57,4.36l-6.01,12.02c-2.59-1.68-5.48-2.97-8.68-3.88-3.2-.9-6.45-1.36-9.74-1.36-3.04,0-5.64.36-7.8,1.07-2.17.71-3.81,1.7-4.94,2.96-1.13,1.26-1.73,2.7-1.79,4.31,0,1.55.61,2.84,1.84,3.88,1.23,1.03,2.84,1.89,4.85,2.57,2,.68,4.2,1.36,6.59,2.04,2.39.68,4.78,1.42,7.17,2.23,2.39.81,4.59,1.86,6.59,3.15,2,1.29,3.62,2.94,4.85,4.94,1.23,2,1.84,4.46,1.84,7.37,0,4.65-1.29,8.71-3.88,12.17-2.59,3.46-6.22,6.14-10.9,8.04-4.69,1.91-10.16,2.86-16.43,2.86Z"/>
      <path class="cls-8" d="m586.95,293.19l43.81-67.85h15.51l16.77,67.85h-15.7l-13.28-60.1h6.3l-36.64,60.1h-16.77Zm18.03-14.54l6.49-11.92h34.99l1.84,11.92h-43.33Z"/>
      <path class="cls-8" d="m670.11,293.19l13.57-67.85h12.99l29.18,49.14-5.14-.29,9.79-48.85h15.41l-13.57,67.85h-12.89l-29.27-49.14,5.23.29-9.79,48.85h-15.51Z"/>
      <path class="cls-8" d="m762.49,293.19l10.95-55.06h-21.62l2.52-12.79h59.13l-2.62,12.79h-21.62l-10.95,55.06h-15.8Z"/>
      <path class="cls-8" d="m839.16,294.36c-6.59,0-12.08-1.29-16.48-3.88-4.4-2.58-7.5-6.2-9.31-10.86-1.81-4.65-2.07-10.11-.78-16.38l7.56-37.9h15.7l-7.46,37.71c-.58,3.1-.76,5.77-.53,8,.23,2.23.89,4.09,1.99,5.57,1.1,1.49,2.58,2.6,4.46,3.34,1.87.74,4.07,1.11,6.59,1.11,3.17,0,5.91-.63,8.24-1.89,2.33-1.26,4.26-3.21,5.82-5.86,1.55-2.65,2.71-6.07,3.49-10.27l7.66-37.71h15.41l-7.75,38.77c-1.94,10.02-5.8,17.56-11.58,22.63-5.78,5.07-13.46,7.61-23.02,7.61Z"/>
      <path class="cls-8" d="m919.22,294.36c-6.92,0-12.89-1.24-17.93-3.73-5.04-2.49-8.9-5.93-11.58-10.32-2.68-4.39-4.02-9.53-4.02-15.41s1.02-11.11,3.05-16.09c2.04-4.98,4.91-9.29,8.63-12.94,3.71-3.65,8.14-6.51,13.28-8.58,5.14-2.07,10.87-3.1,17.21-3.1s11.44,1.03,16.09,3.1c4.65,2.07,8.14,5.01,10.47,8.82l-11.34,9.31c-1.68-2.52-3.88-4.47-6.59-5.86-2.71-1.39-5.95-2.08-9.69-2.08s-7.27.68-10.37,2.04c-3.1,1.36-5.77,3.25-8,5.67-2.23,2.42-3.93,5.23-5.09,8.43-1.16,3.2-1.74,6.64-1.74,10.32,0,3.43.73,6.41,2.18,8.97,1.45,2.55,3.62,4.56,6.49,6.01,2.87,1.45,6.32,2.18,10.32,2.18,3.49,0,6.75-.65,9.79-1.94,3.04-1.29,5.78-3.3,8.24-6.01l9.21,9.5c-3.49,4.14-7.66,7.12-12.5,8.97-4.85,1.84-10.21,2.76-16.09,2.76Z"/>
      <path class="cls-8" d="m988.82,294.36c-6.92,0-12.89-1.24-17.93-3.73-5.04-2.49-8.9-5.93-11.58-10.32-2.68-4.39-4.02-9.53-4.02-15.41s1.02-11.11,3.05-16.09c2.04-4.98,4.91-9.29,8.63-12.94,3.72-3.65,8.14-6.51,13.28-8.58,5.14-2.07,10.87-3.1,17.2-3.1s11.44,1.03,16.09,3.1c4.65,2.07,8.14,5.01,10.47,8.82l-11.34,9.31c-1.68-2.52-3.88-4.47-6.59-5.86-2.71-1.39-5.95-2.08-9.69-2.08s-7.27.68-10.37,2.04c-3.1,1.36-5.77,3.25-8,5.67-2.23,2.42-3.93,5.23-5.09,8.43-1.16,3.2-1.75,6.64-1.75,10.32,0,3.43.73,6.41,2.18,8.97,1.45,2.55,3.62,4.56,6.49,6.01,2.88,1.45,6.32,2.18,10.32,2.18,3.49,0,6.75-.65,9.79-1.94,3.04-1.29,5.78-3.3,8.24-6.01l9.21,9.5c-3.49,4.14-7.66,7.12-12.5,8.97s-10.21,2.76-16.09,2.76Z"/>
      <path class="cls-8" d="m1024.19,293.19l13.57-67.85h15.7l-13.57,67.85h-15.7Z"/>
    </g>
    <circle class="cls-1" cx="409.56" cy="46.44" r="4"/>
    <circle class="cls-1" cx="399.56" cy="164.44" r="2"/>
    <circle class="cls-1" cx="268.56" cy="236.44" r="4"/>
    <circle class="cls-1" cx="297.95" cy="124.74" r="6.61"/>
    <circle class="cls-1" cx="621.34" cy="21.35" r="6.61"/>
    <circle class="cls-1" cx="455.99" cy="373.7" r="3.26"/>
    <circle class="cls-1" cx="928.34" cy="339.35" r="6.61"/>
    <circle class="cls-1" cx="79.56" cy="155.44" r="4"/>
    <circle class="cls-1" cx="721.56" cy="313.44" r="4"/>
    <circle class="cls-1" cx="1429.56" cy="89.44" r="2"/>
    <circle class="cls-1" cx="813.56" cy="364.44" r="2"/>
    <circle class="cls-1" cx="1485.56" cy="190.44" r="2"/>
    <circle class="cls-1" cx="541.56" cy="350.44" r="2"/>
    <circle class="cls-1" cx="1415.56" cy="220.44" r="4"/>
    <circle class="cls-1" cx="224.56" cy="67.44" r="4"/>
    <circle class="cls-1" cx="1530.56" cy="188.44" r="2"/>
    <g>
      <polyline class="cls-7" points="164.13 192.02 188.43 156.04 222.08 146.42 265.58 107.49 328.67 44.65"/>
      <polyline class="cls-7" points="154.77 132 188.43 156.04 233.93 237.31 286.82 262.96 382.36 324.33"/>
      <polyline class="cls-7" points="356.71 382.03 240.52 323.53 233.93 237.31"/>
      <polyline class="cls-7" points="194.84 79.11 265.58 107.49 350.3 184.89 415.64 222.09 447.1 219.68 479.15 203.66"/>
      <line class="cls-7" x1="350.3" y1="184.89" x2="402.22" y2="262.96"/>
      <circle class="cls-1" cx="161.18" cy="197.71" r="6.41"/>
      <circle class="cls-1" cx="188.43" cy="156.04" r="6.41"/>
      <circle class="cls-1" cx="350.3" cy="184.89" r="6.41"/>
      <circle class="cls-1" cx="222.08" cy="146.42" r="3.21"/>
      <circle class="cls-1" cx="154.77" cy="132" r="3.21"/>
      <circle class="cls-1" cx="194.84" cy="79.11" r="3.21"/>
      <circle class="cls-1" cx="356.71" cy="382.03" r="6.41"/>
      <circle class="cls-1" cx="382.36" cy="324.33" r="6.41"/>
      <circle class="cls-1" cx="328.67" cy="44.65" r="7.21"/>
      <circle class="cls-1" cx="240.52" cy="323.53" r="7.21"/>
      <ellipse class="cls-1" cx="265.58" cy="107.49" rx="6.19" ry="5.94"/>
      <ellipse class="cls-1" cx="415.64" cy="222.09" rx="5.19" ry="5.14"/>
      <ellipse class="cls-1" cx="447.1" cy="219.68" rx="5.19" ry="5.14"/>
      <ellipse class="cls-1" cx="479.15" cy="203.66" rx="5.19" ry="5.14"/>
      <ellipse class="cls-1" cx="286.82" cy="262.96" rx="5.19" ry="5.14"/>
      <ellipse class="cls-1" cx="233.93" cy="237.31" rx="5.19" ry="5.14"/>
      <ellipse class="cls-1" cx="402.22" cy="262.96" rx="5.19" ry="5.14"/>
    </g>
    <g>
      <polygon class="cls-5" points="1128.35 92.72 1202 27.23 1259.69 78.55 1263.06 199.89 1372.21 316.45 1238.32 378.93 1232.82 238.62 1128.35 92.72"/>
      <polyline class="cls-5" points="1232.82 238.62 1248.86 219.92 1263.06 199.89"/>
      <polyline class="cls-4" points="1274.46 300.24 1271.96 290.94 1268.92 279.57"/>
      <circle class="cls-1" cx="1128.35" cy="92.72" r="5.35"/>
      <circle class="cls-1" cx="1259.69" cy="78.55" r="4.28"/>
      <circle class="cls-1" cx="1372.21" cy="316.45" r="4.28"/>
      <circle class="cls-1" cx="1238.32" cy="378.93" r="4.28"/>
      <circle class="cls-1" cx="1248.86" cy="219.92" r="4.28"/>
      <circle class="cls-1" cx="1232.82" cy="238.62" r="4.28"/>
      <ellipse class="cls-1" cx="1263.06" cy="199.89" rx="3.56" ry="3.59" transform="translate(-8.68 333.89) rotate(-15.01)"/>
      <ellipse class="cls-1" cx="1202" cy="27.23" rx="3.56" ry="3.59" transform="translate(33.95 312.19) rotate(-15.01)"/>
      <ellipse class="cls-1" cx="1353.47" cy="296.03" rx="2.16" ry="2.17" transform="translate(-30.49 360.58) rotate(-15.01)"/>
      <ellipse class="cls-1" cx="1274.46" cy="300.24" rx="3.56" ry="3.59" transform="translate(-34.28 340.26) rotate(-15.01)"/>
      <ellipse class="cls-1" cx="1271.96" cy="290.94" rx="2.16" ry="2.17" transform="translate(-31.95 339.3) rotate(-15.01)"/>
      <ellipse class="cls-1" cx="1268.92" cy="279.57" rx="2.16" ry="2.17" transform="translate(-29.11 338.12) rotate(-15.01)"/>
      <ellipse class="cls-1" cx="1306.06" cy="225.31" rx="2.16" ry="2.17" transform="translate(-13.79 345.89) rotate(-15.01)"/>
      <ellipse class="cls-1" cx="1197.06" cy="41.85" rx="2.16" ry="2.17" transform="translate(29.99 311.41) rotate(-15.01)"/>
      <ellipse class="cls-1" cx="1298.18" cy="204.16" rx="2.16" ry="2.17" transform="translate(-8.59 343.13) rotate(-15.01)"/>
      <ellipse class="cls-1" cx="1282.81" cy="155.11" rx="2.16" ry="2.17" transform="translate(3.59 337.48) rotate(-15.01)"/>
      <ellipse class="cls-1" cx="1327.7" cy="124.24" rx="2.16" ry="2.17" transform="translate(13.12 348.05) rotate(-15.01)"/>
      <ellipse class="cls-1" cx="1145.26" cy="216.35" rx="2.16" ry="2.17" transform="translate(-16.96 303.95) rotate(-15.01)"/>
      <ellipse class="cls-1" cx="1157.75" cy="279.47" rx="2.16" ry="2.17" transform="translate(-32.88 309.33) rotate(-15.01)"/>
      <ellipse class="cls-1" cx="1087.65" cy="63.43" rx="2.16" ry="2.17" transform="translate(20.67 283.81) rotate(-15.01)"/>
      <ellipse class="cls-1" cx="1211.03" cy="131.15" rx="2.16" ry="2.17" transform="translate(7.35 318.07) rotate(-15.01)"/>
      <ellipse class="cls-1" cx="1331.55" cy="320.38" rx="2.16" ry="2.17" transform="translate(-37.54 355.74) rotate(-15.01)"/>
    </g>
    <circle class="cls-1" cx="979.56" cy="57.44" r="4"/>
    <circle class="cls-1" cx="722.38" cy="48.97" r="2"/>
    <circle class="cls-1" cx="881.56" cy="15.44" r="2"/>
    <circle class="cls-1" cx="489.16" cy="127.19" r="3.4"/>
  </g>
</svg>